# xmcd
#
# Track frame offsets:
#	150
#	12145
#	23222
#	35857
#	46190
#	55972
#	68442
#	80515
#	91787
#	105270
#	116102
#	125720
#	135815
#	147085
#
# Disc length: 2142 seconds
#
# Revision: 0
# Processed by: cddbd v1.5.1PL0 Copyright (c) Steve Scherf et al.
# Submitted via: dBpowerAMP V4.0
#
DISCID=ae085c0e
DTITLE=Eddie Arnold - Signature Series
DYEAR=2000
DGENRE=Country
TTITLE0=MAKE THE WORLD GO AWAY
TTITLE1=SOMEBODY LIKE ME
TTITLE2=THEN YOU CAN TELL ME GOODBYE
TTITLE3=HERE COME HEAVEN
TTITLE4=WHAT'S HE DOIN' IN MY WORLD
TTITLE5=LONELY AGAIN
TTITLE6=I WANT TO GO WITH YOU
TTITLE7=TURN THE WORLD AROUND
TTITLE8=THE TIP OF MY FINGERS
TTITLE9=DOES HE MEAN THAT MUCH TO YOU?
TTITLE10=MISTY BLUE
TTITLE11=THE LAST WORD IN LONESOME IS ME
TTITLE12=HERE COME THE RAIN, BABY
TTITLE13=IT'S OVER
EXTD=Eddie Arnold
EXTT0=
EXTT1=
EXTT2=
EXTT3=
EXTT4=
EXTT5=
EXTT6=
EXTT7=
EXTT8=
EXTT9=
EXTT10=
EXTT11=
EXTT12=
EXTT13=
PLAYORDER=
